<?xml version="1.0" encoding="UTF-8"?>
<svg id="Layer_1" data-name="Layer 1" xmlns="http://www.w3.org/2000/svg" viewBox="0 0 109.77 109.76">
  <defs>
    <style>
      .cls-1 {
        fill: #64ff00;
      }
    </style>
  </defs>
  <rect class="cls-1" x="45.07" y="45.05" width="19.63" height="19.63"/>
  <path class="cls-1" d="M30.23,82.18h49.5l-24.75,24.75-24.75-24.75ZM29.49,56.7l23.48,23.48h-23.48v-23.48ZM80.28,56.7v23.48h-23.48l23.48-23.48ZM30.49,54.87l24.4-24.4,24.4,24.4-24.4,24.4-24.4-24.4ZM82.28,30.29l24.67,24.66-24.67,24.66V30.29ZM2.83,54.78l24.66-24.66v49.33L2.83,54.78ZM29.49,29.56h23.48l-23.48,23.48v-23.48ZM56.8,29.56h23.48v23.48l-23.48-23.48ZM54.8,2.81l24.75,24.75H30.05L54.8,2.81ZM54.78,0L0,54.78l54.97,54.97,54.8-54.8L54.82,0h-.04Z"/>
</svg>