<?xml version="1.0" encoding="UTF-8"?>
<svg id="Layer_1" data-name="Layer 1" xmlns="http://www.w3.org/2000/svg" xmlns:xlink="http://www.w3.org/1999/xlink" viewBox="0 0 110.24 109.76">
  <defs>
    <style>
      .cls-1 {
        fill: none;
      }

      .cls-2 {
        clip-path: url(#clippath);
      }

      .cls-3 {
        fill: #2c5f50;
      }
    </style>
    <clipPath id="clippath">
      <rect class="cls-1" width="110.24" height="109.76"/>
    </clipPath>
  </defs>
  <g class="cls-2">
    <path class="cls-3" d="M12.67,53.57H1.03v1.82h11.64c0-.3-.02-.61-.02-.91s.02-.61.02-.91"/>
    <path class="cls-3" d="M96.78,55.39h11.63v-1.82h-11.63c0,.3.02.61.02.91s-.02.61-.02.91"/>
    <path class="cls-3" d="M87.14,53.57h-16.28c.02.3.05.6.05.91s-.03.61-.05.91h16.28c0-.3.02-.61.02-.91s-.01-.61-.02-.91"/>
    <path class="cls-3" d="M38.54,54.48c0-.31.03-.61.05-.91h-16.28c0,.3-.02.61-.02.91s.01.61.02.91h16.28c-.02-.3-.05-.6-.05-.91"/>
    <path class="cls-3" d="M55.63,12.42V.78h-1.82v11.63c.3,0,.61-.02.91-.02s.61.02.91.02"/>
    <path class="cls-3" d="M53.81,96.54v11.64h1.82v-11.64c-.3,0-.61.02-.91.02s-.61-.02-.91-.02"/>
    <path class="cls-3" d="M54.72,38.3c.31,0,.61.03.91.05v-16.28c-.3,0-.61-.02-.91-.02s-.61.01-.91.02v16.28c.3-.02.6-.05.91-.05"/>
    <path class="cls-3" d="M54.72,70.66c-.31,0-.61-.03-.91-.05v16.28c.3,0,.61.02.91.02s.61-.01.91-.02v-16.28c-.3.02-.6.05-.91.05"/>
    <path class="cls-3" d="M83.82,84.86l8.23,8.23,1.29-1.29-8.23-8.23c-.42.44-.85.87-1.29,1.29"/>
    <path class="cls-3" d="M25.63,24.09l-8.23-8.23-1.29,1.29,8.23,8.23c.42-.44.85-.87,1.29-1.29"/>
    <path class="cls-3" d="M65.49,66.53l11.51,11.51c.44-.42.87-.85,1.29-1.29l-11.51-11.51c-.4.45-.83.88-1.29,1.29"/>
    <path class="cls-3" d="M43.96,42.42l-11.51-11.51c-.44.42-.87.85-1.29,1.29l11.51,11.51c.4-.45.83-.88,1.29-1.29"/>
    <path class="cls-3" d="M85.11,25.38l8.23-8.23-1.29-1.29-8.23,8.23c.44.42.87.85,1.29,1.29"/>
    <path class="cls-3" d="M24.34,83.57l-8.23,8.23,1.29,1.29,8.23-8.23c-.44-.42-.87-.85-1.29-1.29"/>
    <path class="cls-3" d="M42.67,65.24l-11.51,11.51c.42.44.85.87,1.29,1.29l11.51-11.51c-.45-.4-.88-.83-1.29-1.29"/>
    <path class="cls-3" d="M66.78,43.71l11.51-11.51c-.42-.44-.85-.87-1.29-1.29l-11.51,11.51c.45.4.88.83,1.29,1.29"/>
    <path class="cls-3" d="M104.5,34.34l-.71-1.67-10.7,4.54c.25.55.49,1.11.71,1.67l10.7-4.54Z"/>
    <path class="cls-3" d="M4.94,74.62l.71,1.68,10.7-4.54c-.25-.55-.49-1.11-.71-1.67l-10.7,4.54Z"/>
    <path class="cls-3" d="M69.94,49.01l14.99-6.36c-.22-.57-.46-1.12-.71-1.67l-14.99,6.36c.27.54.5,1.1.71,1.67"/>
    <path class="cls-3" d="M39.51,59.95l-14.99,6.36c.22.57.46,1.12.71,1.67l14.99-6.36c-.27-.54-.5-1.1-.71-1.68"/>
    <path class="cls-3" d="M74.73,103.93l1.67-.71-4.4-10.38c-.55.25-1.11.49-1.68.71l4.4,10.38Z"/>
    <path class="cls-3" d="M34.44,4.37l-1.68.71,4.68,11.02c.55-.25,1.11-.49,1.67-.71l-4.68-11.02Z"/>
    <path class="cls-3" d="M60.19,69.69l6.36,14.99c.57-.22,1.12-.46,1.68-.71l-6.36-14.99c-.54.27-1.1.5-1.67.71"/>
    <path class="cls-3" d="M49.26,39.26l-6.36-14.99c-.57.22-1.12.46-1.67.71l6.36,14.99c.54-.27,1.1-.5,1.68-.71"/>
    <path class="cls-3" d="M5.28,33.52l-.68,1.69,10.77,4.35c.22-.57.44-1.13.68-1.69l-10.77-4.35Z"/>
    <path class="cls-3" d="M104.17,75.43l.68-1.69-10.77-4.35c-.22.57-.44,1.13-.68,1.69l10.77,4.35Z"/>
    <path class="cls-3" d="M69.35,61.37l15.1,6.1c.24-.56.47-1.12.68-1.69l-15.1-6.1c-.2.58-.43,1.14-.69,1.69"/>
    <path class="cls-3" d="M40.1,47.59l-15.1-6.1c-.24.56-.47,1.12-.69,1.69l15.1,6.1c.2-.58.43-1.14.69-1.69"/>
    <path class="cls-3" d="M75.68,5.03l-1.69-.68-4.35,10.77c.57.22,1.13.44,1.69.68l4.35-10.77Z"/>
    <path class="cls-3" d="M33.77,103.92l1.69.68,4.35-10.77c-.57-.22-1.13-.44-1.69-.68l-4.35,10.77Z"/>
    <path class="cls-3" d="M61.61,39.85l6.1-15.1c-.56-.24-1.12-.47-1.69-.68l-6.1,15.1c.58.2,1.14.43,1.69.69"/>
    <path class="cls-3" d="M47.83,69.1l-6.1,15.1c.56.24,1.12.47,1.69.69l6.1-15.1c-.58-.2-1.14-.43-1.69-.69"/>
    <path class="cls-3" d="M64.48,54.48c0,5.39-4.37,9.76-9.76,9.76s-9.76-4.37-9.76-9.76,4.37-9.76,9.76-9.76,9.76,4.37,9.76,9.76"/>
  </g>
</svg>