<?xml version="1.0" encoding="UTF-8"?>
<svg id="Layer_1" data-name="Layer 1" xmlns="http://www.w3.org/2000/svg" xmlns:xlink="http://www.w3.org/1999/xlink" viewBox="0 0 110.24 109.76">
  <defs>
    <style>
      .cls-1 {
        fill: none;
      }

      .cls-2 {
        fill: #40b8ea;
      }

      .cls-3 {
        clip-path: url(#clippath);
      }
    </style>
    <clipPath id="clippath">
      <rect class="cls-1" width="110.24" height="109.76"/>
    </clipPath>
  </defs>
  <g class="cls-3">
    <path class="cls-2" d="M105.19,33.88c-2.75-6.5-6.68-12.34-11.7-17.35-5.01-5.01-10.85-8.95-17.35-11.7-6.73-2.85-13.88-4.29-21.24-4.29s-14.51,1.44-21.24,4.29c-6.5,2.75-12.34,6.68-17.35,11.7-5.01,5.01-8.95,10.85-11.69,17.35C1.76,40.61.32,47.75.32,55.12s1.44,14.52,4.29,21.25c2.75,6.5,6.68,12.34,11.69,17.35,5.01,5.01,10.85,8.95,17.35,11.7,6.14,2.59,12.62,4.01,19.3,4.24.19.01.38,0,.57.01.45.02.91.03,1.37.03s.92-.01,1.37-.03c.19,0,.38,0,.57-.01,6.68-.23,13.17-1.65,19.3-4.24,6.5-2.75,12.33-6.68,17.35-11.7,5.01-5.01,8.95-10.85,11.7-17.35,2.85-6.73,4.29-13.88,4.29-21.25s-1.44-14.51-4.29-21.24M37.25,99.99c-4.71-4.71-7.31-10.98-7.31-17.65s2.6-12.93,7.31-17.65c4.71-4.71,10.98-7.31,17.65-7.31s12.93,2.6,17.65,7.31c4.71,4.72,7.31,10.98,7.31,17.65s-2.6,12.93-7.31,17.65c-2.08,2.08-4.47,3.75-7.05,4.96,2.28-2.53,3.68-5.87,3.68-9.53,0-7.87-6.4-14.28-14.28-14.28s-14.28,6.4-14.28,14.28c0,3.67,1.4,7,3.68,9.53-2.59-1.22-4.97-2.88-7.05-4.96M43.02,95.42c0-6.55,5.33-11.88,11.88-11.88s11.88,5.33,11.88,11.88-5.33,11.88-11.88,11.88-11.88-5.33-11.88-11.88M74.21,101.71s.02-.02.03-.03c5.17-5.17,8.01-12.03,8.01-19.34s-2.85-14.18-8.01-19.34c-5.17-5.17-12.04-8.01-19.34-8.01s-14.18,2.84-19.34,8.01c-5.17,5.16-8.01,12.03-8.01,19.34s2.85,14.18,8.01,19.34c0,0,.02.02.03.03-2.25-1.43-4.35-3.09-6.26-5-3.32-3.32-5.93-7.19-7.75-11.5-1.88-4.46-2.84-9.19-2.84-14.08s.96-9.62,2.84-14.08c1.82-4.31,4.43-8.17,7.75-11.5,3.32-3.32,7.19-5.93,11.5-7.75,4.46-1.88,9.19-2.84,14.08-2.84s9.62.96,14.08,2.84c4.31,1.82,8.18,4.43,11.5,7.75,3.32,3.32,5.93,7.19,7.75,11.5,1.89,4.46,2.84,9.19,2.84,14.08s-.96,9.62-2.84,14.08c-1.82,4.31-4.43,8.17-7.75,11.5-1.91,1.91-4.01,3.58-6.26,5M102.98,75.43c-2.63,6.21-6.39,11.8-11.18,16.59-3.96,3.96-8.47,7.21-13.42,9.7,1.33-1.02,2.6-2.12,3.79-3.32,3.54-3.54,6.32-7.67,8.26-12.26,2.01-4.76,3.03-9.81,3.03-15.01s-1.02-10.26-3.03-15.01c-1.94-4.59-4.72-8.72-8.26-12.26-3.54-3.54-7.67-6.32-12.26-8.26-4.76-2.01-9.81-3.03-15.01-3.03s-10.26,1.02-15.01,3.03c-4.59,1.94-8.72,4.72-12.26,8.26-3.54,3.54-6.32,7.67-8.26,12.26-2.01,4.76-3.03,9.81-3.03,15.01s1.02,10.25,3.03,15.01c1.94,4.59,4.72,8.72,8.26,12.26,1.2,1.2,2.47,2.3,3.79,3.32-4.95-2.49-9.46-5.74-13.42-9.7-4.79-4.79-8.56-10.37-11.18-16.59-2.72-6.43-4.1-13.27-4.1-20.31s1.38-13.88,4.1-20.31c2.63-6.21,6.39-11.79,11.18-16.59s10.37-8.56,16.59-11.18c6.43-2.72,13.27-4.1,20.31-4.1s13.88,1.38,20.31,4.1c6.21,2.63,11.79,6.39,16.59,11.18s8.56,10.37,11.18,16.59c2.72,6.43,4.1,13.27,4.1,20.31s-1.38,13.88-4.1,20.31"/>
    <path class="cls-2" d="M54.9,86.07c-5.39,0-9.76,4.37-9.76,9.76s4.37,9.76,9.76,9.76,9.76-4.37,9.76-9.76-4.37-9.76-9.76-9.76"/>
  </g>
</svg>