<?xml version="1.0" encoding="UTF-8"?>
<svg id="Layer_1" data-name="Layer 1" xmlns="http://www.w3.org/2000/svg" viewBox="0 0 104.93 106.92">
  <defs>
    <style>
      .cls-1 {
        fill: #64ff00;
      }
    </style>
  </defs>
  <polygon class="cls-1" points="36.72 29.52 52.47 23.38 68.13 29.64 52.47 35.14 36.72 29.52"/>
  <path class="cls-1" d="M52.47,40.48L0,20.24,52.47,0l52.47,20.24-52.47,20.24ZM4.92,20.24l47.54,18.34,47.54-18.34L52.47,1.9,4.92,20.24Z"/>
  <path class="cls-1" d="M52.47,63.37L0,42.39l52.47-20.98,52.47,20.98-52.47,20.98ZM4.92,42.39l47.54,19.01,47.54-19.01-47.54-19.01L4.92,42.39Z"/>
  <path class="cls-1" d="M52.47,85.51L0,64.53l52.47-20.98,52.47,20.98-52.47,20.98ZM4.92,64.53l47.54,19.01,47.54-19.01-47.54-19.01L4.92,64.53Z"/>
  <path class="cls-1" d="M52.47,106.92L0,86.68l52.47-20.24,52.47,20.24-52.47,20.24ZM4.92,86.68l47.54,18.34,47.54-18.34-47.54-18.34L4.92,86.68Z"/>
  <polygon class="cls-1" points="36.72 51.67 52.47 45.52 68.13 51.79 52.47 57.29 36.72 51.67"/>
  <polygon class="cls-1" points="36.72 73.81 52.47 67.67 68.13 73.93 52.47 79.43 36.72 73.81"/>
</svg>